<svg id="svg" xmlns="http://www.w3.org/2000/svg" xmlns:xlink="http://www.w3.org/1999/xlink" width="400" height="222.22222222222223" viewBox="0, 0, 400,222.22222222222223" version="1.1"><g id="svgg"><path id="path0" d="M212.895 35.598 C 211.213 35.809,210.547 36.011,207.056 37.376 C 203.932 38.598,200.917 41.162,199.498 43.806 C 199.102 44.544,198.609 45.465,198.403 45.852 C 196.430 49.557,196.332 51.677,196.356 90.000 L 196.375 120.778 197.199 123.889 C 197.653 125.600,198.193 127.317,198.401 127.704 C 198.608 128.091,199.093 128.991,199.478 129.704 C 199.863 130.417,200.517 131.300,200.931 131.667 C 201.344 132.033,201.829 132.537,202.008 132.787 C 202.187 133.036,202.683 133.483,203.111 133.779 C 203.539 134.075,203.989 134.446,204.111 134.604 C 204.666 135.320,209.394 137.342,211.297 137.676 C 216.531 138.596,223.924 138.112,226.321 136.692 C 226.694 136.471,227.592 136.056,228.315 135.770 C 229.093 135.463,230.172 134.768,230.955 134.070 C 231.683 133.420,232.355 132.889,232.448 132.889 C 232.541 132.889,233.053 132.221,233.586 131.406 C 234.119 130.590,234.729 129.665,234.942 129.350 C 235.342 128.757,236.324 125.939,237.173 122.946 L 237.662 121.222 237.734 88.222 C 237.808 54.874,237.743 51.367,237.006 48.777 C 236.091 45.563,235.019 43.014,234.348 42.456 C 234.154 42.296,233.777 41.776,233.510 41.300 C 233.243 40.825,232.619 40.194,232.123 39.899 C 231.628 39.604,230.956 39.081,230.630 38.737 C 230.305 38.393,229.455 37.872,228.742 37.580 C 228.028 37.289,226.894 36.807,226.222 36.511 C 223.831 35.458,217.491 35.024,212.895 35.598 M263.296 35.581 C 262.481 35.686,261.181 36.014,260.407 36.310 C 259.633 36.606,258.308 37.112,257.463 37.434 C 254.297 38.640,251.280 41.436,249.245 45.050 C 248.470 46.426,247.287 51.480,247.085 54.273 C 246.685 59.810,246.946 122.097,247.374 123.444 C 249.399 129.808,252.463 133.954,256.444 135.714 C 257.117 136.012,258.169 136.498,258.783 136.796 C 261.787 138.251,269.022 138.592,274.390 137.532 C 278.016 136.816,283.235 133.240,284.769 130.420 C 285.127 129.764,285.644 128.895,285.920 128.489 C 286.195 128.084,286.587 126.983,286.792 126.043 C 286.996 125.103,287.306 123.783,287.480 123.111 C 288.503 119.162,289.021 64.104,288.124 54.667 C 287.585 48.997,286.811 45.584,285.680 43.889 C 285.272 43.278,284.691 42.378,284.388 41.889 C 282.972 39.603,279.660 37.420,275.619 36.108 C 273.460 35.407,266.840 35.124,263.296 35.581 M160.333 35.882 C 158.493 36.284,154.039 38.107,153.347 38.741 C 153.034 39.028,152.428 39.476,152.000 39.736 C 151.002 40.343,149.313 42.284,148.671 43.562 C 148.397 44.108,147.969 44.777,147.722 45.047 C 147.181 45.638,146.343 48.433,145.837 51.331 C 145.339 54.189,145.266 118.974,145.757 121.778 C 146.305 124.897,147.124 127.638,147.794 128.592 C 148.152 129.101,148.444 129.622,148.444 129.751 C 148.444 130.133,151.417 133.321,152.240 133.821 C 152.658 134.075,153.200 134.473,153.444 134.705 C 154.035 135.265,158.680 137.252,160.222 137.603 C 161.964 138.000,172.106 137.990,173.889 137.589 C 175.391 137.252,179.505 135.345,180.626 134.466 C 181.032 134.149,182.005 133.292,182.788 132.563 C 184.121 131.324,184.434 130.855,186.137 127.556 C 186.421 127.006,186.905 125.299,187.213 123.763 L 187.772 120.971 187.778 104.430 C 187.781 95.332,187.782 87.765,187.781 87.613 C 187.779 87.460,187.363 87.035,186.856 86.668 L 185.933 86.000 176.848 86.000 C 165.124 86.000,166.162 85.385,166.202 92.308 L 166.229 97.000 166.917 97.630 C 167.598 98.253,167.632 98.260,170.080 98.195 C 174.818 98.069,174.773 97.953,174.613 109.874 C 174.452 121.985,173.982 123.305,169.137 125.288 C 164.930 127.010,160.569 124.266,159.418 119.174 L 158.891 116.840 158.881 86.142 L 158.872 55.444 159.433 53.556 C 160.667 49.399,165.059 46.932,168.913 48.230 C 173.698 49.842,174.856 52.889,174.877 63.925 L 174.889 70.183 175.573 70.758 L 176.256 71.333 181.095 71.333 C 188.271 71.333,187.746 72.121,187.765 61.327 C 187.781 52.282,187.288 47.715,186.045 45.407 C 185.837 45.020,185.350 44.120,184.963 43.407 C 183.733 41.144,180.459 38.401,177.889 37.481 C 177.033 37.175,175.783 36.725,175.111 36.481 C 172.559 35.555,163.511 35.188,160.333 35.882 M299.807 37.327 C 298.038 37.759,298.212 32.378,298.211 86.651 C 298.209 140.320,298.070 135.778,299.722 136.192 C 303.573 137.157,322.167 136.879,326.808 135.786 C 330.451 134.928,334.551 131.614,335.776 128.534 C 336.063 127.813,336.490 126.944,336.724 126.605 C 338.349 124.251,338.776 113.245,338.555 79.444 C 338.380 52.664,338.172 48.702,336.835 46.731 C 336.521 46.268,335.980 45.320,335.632 44.625 C 334.200 41.761,330.316 38.827,326.517 37.739 C 324.675 37.212,301.728 36.858,299.807 37.327 M108.556 38.590 C 105.481 39.433,103.134 40.435,101.932 41.419 C 99.401 43.490,98.346 44.958,98.001 46.889 C 97.564 49.339,97.153 50.009,95.494 50.980 C 93.998 51.854,93.799 52.125,93.345 53.909 C 93.047 55.079,92.607 55.448,91.143 55.755 C 90.369 55.918,89.655 56.261,89.100 56.736 C 88.630 57.138,87.666 57.650,86.959 57.873 C 86.251 58.096,85.170 58.558,84.558 58.900 C 83.946 59.242,82.871 59.686,82.170 59.887 C 81.450 60.093,80.498 60.584,79.982 61.015 C 79.480 61.434,78.971 61.778,78.852 61.778 C 78.733 61.778,76.617 63.769,74.151 66.202 C 67.467 72.798,63.416 76.438,61.219 77.822 C 60.728 78.131,60.180 78.561,60.000 78.778 C 59.820 78.994,59.272 79.424,58.781 79.733 C 58.290 80.041,57.458 80.652,56.932 81.091 C 49.374 87.395,47.053 90.368,46.770 94.111 C 46.453 98.315,46.960 100.352,49.593 105.455 C 51.849 109.826,51.212 115.594,48.276 117.380 C 47.312 117.966,38.506 116.632,35.333 115.420 C 34.642 115.156,33.606 115.028,31.977 115.007 C 29.070 114.969,28.873 114.847,25.071 110.722 L 23.587 109.111 22.349 109.111 C 21.426 109.111,21.012 109.217,20.722 109.527 C 17.586 112.880,16.048 114.597,15.373 115.496 C 14.923 116.095,14.156 117.062,13.667 117.644 C 13.178 118.227,12.308 119.270,11.734 119.963 C 11.160 120.655,10.325 121.622,9.879 122.111 C 7.520 124.696,7.280 126.048,8.994 127.107 C 10.077 127.776,13.493 127.080,15.830 125.714 C 16.351 125.410,17.528 124.938,18.444 124.666 C 19.361 124.393,20.827 123.827,21.701 123.406 C 23.821 122.386,25.190 122.621,26.401 124.212 C 27.288 125.378,27.290 125.673,26.459 132.624 C 26.000 136.466,25.993 136.754,26.337 137.788 C 27.365 140.884,30.641 139.876,33.149 135.692 C 33.434 135.218,34.028 134.418,34.470 133.915 C 34.912 133.412,35.434 132.700,35.629 132.333 C 36.179 131.299,38.557 128.889,39.025 128.890 C 40.247 128.894,41.147 129.382,41.923 130.463 C 43.062 132.048,44.453 132.437,46.778 131.821 C 47.267 131.691,48.617 131.479,49.778 131.350 C 50.939 131.220,52.821 131.010,53.959 130.884 C 57.863 130.450,61.000 128.984,62.333 126.970 C 63.661 124.963,65.445 123.016,65.771 123.218 C 66.296 123.543,66.667 124.885,66.674 126.493 C 66.689 129.805,67.061 132.563,67.691 134.036 C 68.023 134.811,68.569 136.394,68.906 137.556 C 69.243 138.717,69.876 140.467,70.312 141.444 C 70.749 142.422,71.107 143.385,71.108 143.583 C 71.114 144.299,71.781 145.821,72.439 146.620 C 72.809 147.068,73.111 147.561,73.111 147.715 C 73.111 148.022,74.267 149.379,77.426 152.778 C 81.195 156.834,81.062 156.643,80.909 157.778 C 80.764 158.859,79.818 160.731,78.822 161.906 C 78.480 162.309,77.954 163.266,77.654 164.032 C 77.354 164.798,76.861 165.781,76.559 166.217 C 76.257 166.652,75.764 167.616,75.462 168.359 C 75.160 169.102,74.612 170.200,74.243 170.799 C 73.863 171.417,73.432 172.579,73.247 173.483 C 73.067 174.360,72.621 175.760,72.255 176.594 C 71.890 177.428,71.382 178.932,71.126 179.935 C 70.871 180.939,70.417 182.339,70.118 183.046 C 69.820 183.754,69.311 185.483,68.989 186.889 C 68.664 188.304,68.078 190.089,67.675 190.889 C 67.276 191.683,66.772 192.883,66.556 193.556 C 65.688 196.258,65.404 196.336,56.846 196.246 L 50.026 196.175 48.597 197.587 C 46.901 199.264,46.413 200.841,47.352 201.611 C 48.118 202.239,369.718 202.214,370.892 201.586 C 372.623 200.661,372.833 198.559,371.344 197.069 L 370.494 196.219 239.672 196.224 C 134.601 196.227,108.735 196.173,108.264 195.947 C 107.203 195.438,107.140 194.630,108.076 193.537 C 108.523 193.014,108.889 192.468,108.889 192.323 C 108.889 192.178,109.439 191.232,110.111 190.222 C 110.783 189.212,111.333 188.257,111.333 188.099 C 111.333 187.941,111.681 187.356,112.107 186.799 C 112.532 186.242,113.140 185.159,113.458 184.393 C 113.776 183.627,114.274 182.650,114.565 182.222 C 114.855 181.794,115.254 180.744,115.452 179.889 C 115.649 179.033,116.050 177.733,116.342 177.000 C 118.355 171.950,119.610 167.466,119.638 165.222 L 119.667 163.000 118.489 160.929 C 116.259 157.006,116.956 155.403,120.844 155.515 C 124.242 155.612,129.292 154.008,131.222 152.217 C 134.859 148.844,135.506 147.899,136.426 144.622 C 137.337 141.374,136.551 135.456,134.927 133.337 C 134.600 132.911,134.057 132.131,133.720 131.604 C 131.295 127.811,128.185 125.784,123.778 125.122 C 120.975 124.701,120.607 124.540,119.145 123.091 C 118.393 122.346,117.778 121.647,117.778 121.538 C 117.778 121.428,117.303 120.796,116.722 120.134 C 116.142 119.472,115.467 118.602,115.222 118.200 C 114.739 117.407,112.823 116.159,112.256 116.269 C 111.679 116.380,110.264 118.622,109.986 119.866 C 109.707 121.113,110.797 123.916,111.975 124.979 C 112.706 125.638,111.758 127.274,109.951 128.475 C 109.466 128.797,108.783 129.407,108.434 129.831 C 107.949 130.419,107.467 130.695,106.399 130.993 C 103.701 131.748,103.129 132.211,102.362 134.265 C 101.850 135.636,101.368 136.221,99.551 137.670 C 98.440 138.557,97.967 139.100,97.771 139.716 C 97.072 141.908,96.466 142.459,94.730 142.482 C 93.961 142.493,92.239 141.728,91.354 140.984 C 90.989 140.676,89.855 140.142,88.836 139.797 C 84.788 138.429,83.812 137.397,82.341 132.924 C 82.126 132.271,81.657 131.403,81.299 130.994 C 80.940 130.586,80.345 129.420,79.977 128.404 C 79.609 127.387,79.062 125.933,78.761 125.173 C 78.184 123.716,78.011 122.175,77.547 114.333 C 77.424 112.256,77.241 109.907,77.141 109.114 C 77.040 108.322,77.041 106.922,77.142 106.003 C 77.243 105.085,77.427 102.883,77.550 101.109 C 77.894 96.163,78.518 94.324,80.239 93.185 L 81.090 92.621 81.712 93.070 C 82.494 93.634,83.739 94.956,84.577 96.111 C 84.932 96.600,85.440 97.177,85.706 97.393 C 85.973 97.608,86.420 98.158,86.700 98.615 C 86.980 99.071,87.512 99.764,87.882 100.154 C 88.252 100.545,89.083 101.495,89.727 102.265 C 90.371 103.036,91.293 104.124,91.775 104.684 C 92.258 105.243,92.871 106.293,93.139 107.017 C 93.914 109.112,94.165 109.286,95.551 108.690 L 96.687 108.201 97.814 109.098 C 98.699 109.802,99.067 109.968,99.526 109.867 C 103.179 109.063,103.303 108.277,100.265 105.199 C 99.166 104.087,98.095 102.837,97.884 102.422 C 97.673 102.006,97.168 101.256,96.761 100.754 C 96.355 100.252,95.774 99.279,95.469 98.590 C 95.165 97.902,94.676 97.013,94.384 96.614 C 94.091 96.215,93.631 95.339,93.361 94.667 C 93.091 93.994,92.617 93.080,92.309 92.634 C 92.001 92.188,91.508 91.112,91.214 90.242 C 90.920 89.372,90.562 88.441,90.419 88.174 C 89.688 86.810,89.567 85.577,90.099 84.939 C 90.377 84.606,90.770 84.009,90.973 83.613 C 91.176 83.217,91.616 82.725,91.949 82.519 C 92.792 82.000,95.556 79.289,95.556 78.982 C 95.556 78.843,95.958 78.272,96.450 77.714 C 98.103 75.835,98.526 74.539,98.350 71.900 C 98.145 68.840,99.469 68.149,101.481 70.266 C 102.930 71.790,103.984 71.771,106.888 70.165 C 107.743 69.693,108.798 69.373,110.395 69.101 C 112.507 68.741,112.751 68.646,113.629 67.837 C 115.239 66.352,117.102 66.380,118.101 67.904 C 118.409 68.374,118.624 68.444,119.748 68.444 C 121.687 68.444,121.762 68.304,122.001 64.191 C 122.184 61.035,122.577 58.876,123.299 57.062 C 124.472 54.115,124.402 50.420,123.123 47.776 C 122.628 46.751,122.222 45.800,122.222 45.662 C 122.222 45.258,119.675 42.431,118.860 41.929 C 118.448 41.676,117.839 41.247,117.507 40.977 C 117.175 40.707,116.225 40.263,115.396 39.990 C 114.567 39.717,113.501 39.299,113.027 39.061 C 112.161 38.626,109.460 38.342,108.556 38.590 M219.736 48.625 C 220.519 48.947,221.354 49.462,221.592 49.771 C 222.482 50.927,223.124 51.918,223.610 52.889 L 224.111 53.889 224.170 86.333 C 224.233 120.983,224.246 120.552,223.129 121.847 C 222.793 122.237,222.335 122.873,222.110 123.260 C 221.663 124.033,218.744 125.639,217.333 125.889 C 214.938 126.313,211.596 123.461,210.444 120.012 L 209.966 118.579 209.965 86.951 L 209.964 55.323 210.543 53.465 C 212.019 48.728,215.510 46.890,219.736 48.625 M269.784 48.424 C 271.742 49.158,272.506 49.951,273.824 52.620 L 275.000 55.000 275.000 86.936 L 275.000 118.872 273.763 121.269 L 272.525 123.667 270.207 124.826 C 267.196 126.332,266.499 126.241,263.184 123.902 C 262.919 123.715,262.560 123.285,262.387 122.947 C 262.213 122.610,261.753 121.829,261.364 121.212 C 260.194 119.358,260.185 119.153,260.135 93.667 C 260.076 63.211,260.220 54.932,260.834 53.556 C 262.981 48.744,266.006 47.010,269.784 48.424 M316.941 49.455 C 321.743 49.778,323.838 51.202,324.773 54.778 C 325.136 56.168,325.355 115.760,325.005 117.898 C 324.736 119.536,323.773 121.547,323.085 121.902 C 322.736 122.083,322.124 122.514,321.725 122.861 C 320.016 124.347,313.209 124.865,311.950 123.605 L 311.444 123.099 311.444 87.049 C 311.444 46.339,311.278 49.863,313.225 49.412 C 313.834 49.270,314.457 49.191,314.608 49.236 C 314.759 49.280,315.809 49.379,316.941 49.455 M298.111 157.553 C 297.744 157.651,297.175 157.793,296.845 157.867 C 296.232 158.006,293.836 159.958,293.456 160.629 C 291.680 163.766,294.527 167.554,299.606 168.811 C 304.051 169.910,305.455 172.685,302.510 174.548 C 300.321 175.933,298.850 175.434,295.667 172.226 C 294.650 171.201,294.258 171.132,293.447 171.833 C 292.614 172.554,292.834 174.649,293.821 175.398 C 294.177 175.668,294.860 176.223,295.338 176.631 C 296.564 177.676,297.856 178.001,300.758 177.995 C 304.404 177.988,306.105 176.907,307.650 173.614 L 308.301 172.229 307.480 170.611 C 306.337 168.359,304.079 166.495,302.444 166.456 C 302.088 166.447,297.492 164.175,296.820 163.675 C 296.437 163.391,296.453 163.312,297.121 162.128 C 298.427 159.814,300.415 159.454,302.430 161.167 C 305.552 163.819,305.891 163.895,306.685 162.124 C 307.225 160.921,306.249 159.449,304.038 158.128 C 302.977 157.495,299.560 157.163,298.111 157.553 M180.444 157.712 C 177.859 158.133,177.913 157.947,177.822 166.809 C 177.702 178.494,177.298 177.860,184.824 177.791 C 190.169 177.742,190.065 177.772,193.652 175.280 C 195.551 173.961,197.222 170.451,197.222 167.781 C 197.222 164.002,194.440 159.983,190.540 158.130 C 189.876 157.814,181.858 157.482,180.444 157.712 M256.083 157.856 C 253.849 158.582,253.730 159.133,253.833 168.259 C 253.948 178.281,253.584 177.778,260.713 177.777 C 266.823 177.775,269.355 176.753,271.444 173.443 C 271.933 172.669,272.515 171.785,272.737 171.479 C 273.976 169.769,273.637 165.234,272.110 163.111 C 271.714 162.561,271.230 161.794,271.033 161.407 C 270.819 160.988,270.146 160.382,269.365 159.908 C 268.645 159.471,267.930 158.961,267.777 158.776 C 267.034 157.881,258.156 157.182,256.083 157.856 M222.805 158.325 C 222.525 158.627,222.162 159.436,221.997 160.123 C 221.832 160.811,221.413 161.731,221.067 162.167 C 220.720 162.604,220.282 163.519,220.094 164.203 C 219.655 165.800,219.121 167.048,218.745 167.361 C 218.581 167.496,218.147 168.583,217.779 169.774 C 217.411 170.966,216.925 172.180,216.699 172.471 C 214.865 174.834,214.873 177.778,216.713 177.778 C 217.250 177.778,218.671 176.330,219.475 174.963 C 220.388 173.412,220.635 173.333,224.586 173.333 L 228.076 173.333 229.051 174.350 C 229.586 174.910,230.317 175.843,230.675 176.424 C 231.593 177.916,232.246 178.171,233.128 177.383 L 233.809 176.774 233.548 175.272 C 233.401 174.427,233.055 173.430,232.757 172.990 C 231.881 171.700,231.504 170.855,231.093 169.259 C 230.878 168.424,230.441 167.364,230.122 166.904 C 229.803 166.444,229.303 165.292,229.010 164.344 C 228.718 163.396,228.262 162.389,227.996 162.107 C 227.731 161.825,227.266 160.911,226.963 160.075 C 226.080 157.641,224.180 156.841,222.805 158.325 M188.310 161.132 C 188.603 161.363,189.289 161.743,189.833 161.976 C 193.952 163.742,194.871 169.784,191.450 172.604 C 189.045 174.587,183.854 175.876,182.853 174.739 C 181.678 173.403,181.556 172.744,181.556 167.728 L 181.556 162.994 182.330 161.844 L 183.105 160.694 185.441 160.704 C 187.384 160.712,187.867 160.784,188.310 161.132 M264.393 161.208 C 264.971 161.506,265.994 161.990,266.667 162.283 C 268.100 162.909,268.205 163.026,268.903 164.778 C 269.820 167.078,269.426 170.968,268.133 172.378 C 266.457 174.205,259.652 175.894,258.617 174.739 C 257.004 172.940,257.066 162.929,258.702 160.957 C 259.168 160.396,263.158 160.572,264.393 161.208 M226.468 166.361 C 227.246 169.167,226.676 170.444,224.647 170.444 C 222.351 170.444,221.754 169.295,222.523 166.350 C 222.943 164.744,223.074 164.609,224.390 164.441 C 225.736 164.270,225.940 164.458,226.468 166.361 " stroke="none" fill="#201b1d" fill-rule="evenodd"></path><path id="path1" d="M0.000 111.111 L 0.000 222.222 200.000 222.222 L 400.000 222.222 400.000 111.111 L 400.000 0.000 200.000 0.000 L 0.000 0.000 0.000 111.111 M222.889 35.654 C 224.050 35.830,225.550 36.215,226.222 36.511 C 226.894 36.807,228.028 37.289,228.742 37.580 C 229.455 37.872,230.305 38.393,230.630 38.737 C 230.956 39.081,231.628 39.604,232.123 39.899 C 232.619 40.194,233.243 40.825,233.510 41.300 C 233.777 41.776,234.154 42.296,234.348 42.456 C 235.019 43.014,236.091 45.563,237.006 48.777 C 237.743 51.367,237.808 54.874,237.734 88.222 L 237.662 121.222 237.173 122.946 C 236.324 125.939,235.342 128.757,234.942 129.350 C 234.729 129.665,234.119 130.590,233.586 131.406 C 233.053 132.221,232.541 132.889,232.448 132.889 C 232.355 132.889,231.683 133.420,230.955 134.070 C 230.172 134.768,229.093 135.463,228.315 135.770 C 227.592 136.056,226.694 136.471,226.321 136.692 C 223.924 138.112,216.531 138.596,211.297 137.676 C 209.394 137.342,204.666 135.320,204.111 134.604 C 203.989 134.446,203.539 134.075,203.111 133.779 C 202.683 133.483,202.187 133.036,202.008 132.787 C 201.829 132.537,201.344 132.033,200.931 131.667 C 200.517 131.300,199.863 130.417,199.478 129.704 C 199.093 128.991,198.608 128.091,198.401 127.704 C 198.193 127.317,197.653 125.600,197.199 123.889 L 196.375 120.778 196.356 90.000 C 196.332 51.677,196.430 49.557,198.403 45.852 C 198.609 45.465,199.102 44.544,199.498 43.806 C 201.342 40.372,204.117 38.387,210.117 36.211 C 212.465 35.359,219.035 35.073,222.889 35.654 M272.573 35.569 C 277.465 36.114,282.469 38.791,284.388 41.889 C 284.691 42.378,285.272 43.278,285.680 43.889 C 286.399 44.966,286.987 46.855,287.549 49.889 C 288.968 57.546,288.911 117.587,287.480 123.111 C 287.306 123.783,286.996 125.103,286.792 126.043 C 286.587 126.983,286.195 128.084,285.920 128.489 C 285.644 128.895,285.127 129.764,284.769 130.420 C 283.235 133.240,278.016 136.816,274.390 137.532 C 269.022 138.592,261.787 138.251,258.783 136.796 C 258.169 136.498,257.117 136.012,256.444 135.714 C 252.463 133.954,249.399 129.808,247.374 123.444 C 246.946 122.097,246.685 59.810,247.085 54.273 C 247.287 51.480,248.470 46.426,249.245 45.050 C 251.280 41.436,254.297 38.640,257.463 37.434 C 258.308 37.112,259.633 36.606,260.407 36.310 C 262.819 35.388,268.075 35.067,272.573 35.569 M172.151 35.796 C 173.107 35.929,174.439 36.237,175.111 36.481 C 175.783 36.725,177.033 37.175,177.889 37.481 C 180.459 38.401,183.733 41.144,184.963 43.407 C 185.350 44.120,185.837 45.020,186.045 45.407 C 187.288 47.715,187.781 52.282,187.765 61.327 C 187.746 72.121,188.271 71.333,181.095 71.333 L 176.256 71.333 175.573 70.758 L 174.889 70.183 174.877 63.925 C 174.856 52.889,173.698 49.842,168.913 48.230 C 165.059 46.932,160.667 49.399,159.433 53.556 L 158.872 55.444 158.881 86.142 L 158.891 116.840 159.418 119.174 C 160.569 124.266,164.930 127.010,169.137 125.288 C 173.982 123.305,174.452 121.985,174.613 109.874 C 174.773 97.953,174.818 98.069,170.080 98.195 C 167.632 98.260,167.598 98.253,166.917 97.630 L 166.229 97.000 166.202 92.308 C 166.162 85.385,165.124 86.000,176.848 86.000 L 185.933 86.000 186.856 86.668 C 187.363 87.035,187.779 87.460,187.781 87.613 C 187.782 87.765,187.781 95.332,187.778 104.430 L 187.772 120.971 187.213 123.763 C 186.905 125.299,186.421 127.006,186.137 127.556 C 184.434 130.855,184.121 131.324,182.788 132.563 C 178.102 136.924,175.236 137.891,167.000 137.886 C 163.355 137.883,161.024 137.786,160.222 137.603 C 158.680 137.252,154.035 135.265,153.444 134.705 C 153.200 134.473,152.658 134.075,152.240 133.821 C 151.417 133.321,148.444 130.133,148.444 129.751 C 148.444 129.622,148.152 129.101,147.794 128.592 C 147.124 127.638,146.305 124.897,145.757 121.778 C 145.266 118.974,145.339 54.189,145.837 51.331 C 146.343 48.433,147.181 45.638,147.722 45.047 C 147.969 44.777,148.397 44.108,148.671 43.562 C 149.313 42.284,151.002 40.343,152.000 39.736 C 152.428 39.476,153.034 39.028,153.347 38.741 C 156.053 36.261,165.185 34.831,172.151 35.796 M326.517 37.739 C 330.316 38.827,334.200 41.761,335.632 44.625 C 335.980 45.320,336.521 46.268,336.835 46.731 C 338.172 48.702,338.380 52.664,338.555 79.444 C 338.776 113.245,338.349 124.251,336.724 126.605 C 336.490 126.944,336.063 127.813,335.776 128.534 C 334.551 131.614,330.451 134.928,326.808 135.786 C 322.167 136.879,303.573 137.157,299.722 136.192 C 298.070 135.778,298.209 140.320,298.211 86.651 C 298.212 32.378,298.038 37.759,299.807 37.327 C 301.728 36.858,324.675 37.212,326.517 37.739 M113.027 39.061 C 113.501 39.299,114.567 39.717,115.396 39.990 C 116.225 40.263,117.175 40.707,117.507 40.977 C 117.839 41.247,118.448 41.676,118.860 41.929 C 119.675 42.431,122.222 45.258,122.222 45.662 C 122.222 45.800,122.628 46.751,123.123 47.776 C 124.402 50.420,124.472 54.115,123.299 57.062 C 122.577 58.876,122.184 61.035,122.001 64.191 C 121.762 68.304,121.687 68.444,119.748 68.444 C 118.624 68.444,118.409 68.374,118.101 67.904 C 117.102 66.380,115.239 66.352,113.629 67.837 C 112.751 68.646,112.507 68.741,110.395 69.101 C 108.798 69.373,107.743 69.693,106.888 70.165 C 103.984 71.771,102.930 71.790,101.481 70.266 C 99.469 68.149,98.145 68.840,98.350 71.900 C 98.526 74.539,98.103 75.835,96.450 77.714 C 95.958 78.272,95.556 78.843,95.556 78.982 C 95.556 79.289,92.792 82.000,91.949 82.519 C 91.616 82.725,91.176 83.217,90.973 83.613 C 90.770 84.009,90.377 84.606,90.099 84.939 C 89.567 85.577,89.688 86.810,90.419 88.174 C 90.562 88.441,90.920 89.372,91.214 90.242 C 91.508 91.112,92.001 92.188,92.309 92.634 C 92.617 93.080,93.091 93.994,93.361 94.667 C 93.631 95.339,94.091 96.215,94.384 96.614 C 94.676 97.013,95.165 97.902,95.469 98.590 C 95.774 99.279,96.355 100.252,96.761 100.754 C 97.168 101.256,97.673 102.006,97.884 102.422 C 98.095 102.837,99.166 104.087,100.265 105.199 C 103.303 108.277,103.179 109.063,99.526 109.867 C 99.067 109.968,98.699 109.802,97.814 109.098 L 96.687 108.201 95.551 108.690 C 94.165 109.286,93.914 109.112,93.139 107.017 C 92.871 106.293,92.258 105.243,91.775 104.684 C 91.293 104.124,90.371 103.036,89.727 102.265 C 89.083 101.495,88.252 100.545,87.882 100.154 C 87.512 99.764,86.980 99.071,86.700 98.615 C 86.420 98.158,85.973 97.608,85.706 97.393 C 85.440 97.177,84.932 96.600,84.577 96.111 C 83.739 94.956,82.494 93.634,81.712 93.070 L 81.090 92.621 80.239 93.185 C 78.518 94.324,77.894 96.163,77.550 101.109 C 77.427 102.883,77.243 105.085,77.142 106.003 C 77.041 106.922,77.040 108.322,77.141 109.114 C 77.241 109.907,77.424 112.256,77.547 114.333 C 78.011 122.175,78.184 123.716,78.761 125.173 C 79.062 125.933,79.609 127.387,79.977 128.404 C 80.345 129.420,80.940 130.586,81.299 130.994 C 81.657 131.403,82.126 132.271,82.341 132.924 C 83.812 137.397,84.788 138.429,88.836 139.797 C 89.855 140.142,90.989 140.676,91.354 140.984 C 92.239 141.728,93.961 142.493,94.730 142.482 C 96.466 142.459,97.072 141.908,97.771 139.716 C 97.967 139.100,98.440 138.557,99.551 137.670 C 101.368 136.221,101.850 135.636,102.362 134.265 C 103.129 132.211,103.701 131.748,106.399 130.993 C 107.467 130.695,107.949 130.419,108.434 129.831 C 108.783 129.407,109.466 128.797,109.951 128.475 C 111.758 127.274,112.706 125.638,111.975 124.979 C 110.797 123.916,109.707 121.113,109.986 119.866 C 110.264 118.622,111.679 116.380,112.256 116.269 C 112.823 116.159,114.739 117.407,115.222 118.200 C 115.467 118.602,116.142 119.472,116.722 120.134 C 117.303 120.796,117.778 121.428,117.778 121.538 C 117.778 121.647,118.393 122.346,119.145 123.091 C 120.607 124.540,120.975 124.701,123.778 125.122 C 128.185 125.784,131.295 127.811,133.720 131.604 C 134.057 132.131,134.600 132.911,134.927 133.337 C 136.551 135.456,137.337 141.374,136.426 144.622 C 135.506 147.899,134.859 148.844,131.222 152.217 C 129.292 154.008,124.242 155.612,120.844 155.515 C 116.956 155.403,116.259 157.006,118.489 160.929 L 119.667 163.000 119.638 165.222 C 119.610 167.466,118.355 171.950,116.342 177.000 C 116.050 177.733,115.649 179.033,115.452 179.889 C 115.254 180.744,114.855 181.794,114.565 182.222 C 114.274 182.650,113.776 183.627,113.458 184.393 C 113.140 185.159,112.532 186.242,112.107 186.799 C 111.681 187.356,111.333 187.941,111.333 188.099 C 111.333 188.257,110.783 189.212,110.111 190.222 C 109.439 191.232,108.889 192.178,108.889 192.323 C 108.889 192.468,108.523 193.014,108.076 193.537 C 107.140 194.630,107.203 195.438,108.264 195.947 C 108.735 196.173,134.601 196.227,239.672 196.224 L 370.494 196.219 371.344 197.069 C 372.833 198.559,372.623 200.661,370.892 201.586 C 369.718 202.214,48.118 202.239,47.352 201.611 C 46.413 200.841,46.901 199.264,48.597 197.587 L 50.026 196.175 56.846 196.246 C 65.404 196.336,65.688 196.258,66.556 193.556 C 66.772 192.883,67.276 191.683,67.675 190.889 C 68.078 190.089,68.664 188.304,68.989 186.889 C 69.311 185.483,69.820 183.754,70.118 183.046 C 70.417 182.339,70.871 180.939,71.126 179.935 C 71.382 178.932,71.890 177.428,72.255 176.594 C 72.621 175.760,73.067 174.360,73.247 173.483 C 73.432 172.579,73.863 171.417,74.243 170.799 C 74.612 170.200,75.160 169.102,75.462 168.359 C 75.764 167.616,76.257 166.652,76.559 166.217 C 76.861 165.781,77.354 164.798,77.654 164.032 C 77.954 163.266,78.480 162.309,78.822 161.906 C 79.818 160.731,80.764 158.859,80.909 157.778 C 81.062 156.643,81.195 156.834,77.426 152.778 C 74.267 149.379,73.111 148.022,73.111 147.715 C 73.111 147.561,72.809 147.068,72.439 146.620 C 71.781 145.821,71.114 144.299,71.108 143.583 C 71.107 143.385,70.749 142.422,70.312 141.444 C 69.876 140.467,69.243 138.717,68.906 137.556 C 68.569 136.394,68.023 134.811,67.691 134.036 C 67.061 132.563,66.689 129.805,66.674 126.493 C 66.667 124.885,66.296 123.543,65.771 123.218 C 65.445 123.016,63.661 124.963,62.333 126.970 C 61.000 128.984,57.863 130.450,53.959 130.884 C 52.821 131.010,50.939 131.220,49.778 131.350 C 48.617 131.479,47.267 131.691,46.778 131.821 C 44.453 132.437,43.062 132.048,41.923 130.463 C 41.147 129.382,40.247 128.894,39.025 128.890 C 38.557 128.889,36.179 131.299,35.629 132.333 C 35.434 132.700,34.912 133.412,34.470 133.915 C 34.028 134.418,33.434 135.218,33.149 135.692 C 30.641 139.876,27.365 140.884,26.337 137.788 C 25.993 136.754,26.000 136.466,26.459 132.624 C 27.290 125.673,27.288 125.378,26.401 124.212 C 25.190 122.621,23.821 122.386,21.701 123.406 C 20.827 123.827,19.361 124.393,18.444 124.666 C 17.528 124.938,16.351 125.410,15.830 125.714 C 13.493 127.080,10.077 127.776,8.994 127.107 C 7.280 126.048,7.520 124.696,9.879 122.111 C 10.325 121.622,11.160 120.655,11.734 119.963 C 12.308 119.270,13.178 118.227,13.667 117.644 C 14.156 117.062,14.923 116.095,15.373 115.496 C 16.048 114.597,17.586 112.880,20.722 109.527 C 21.012 109.217,21.426 109.111,22.349 109.111 L 23.587 109.111 25.071 110.722 C 28.873 114.847,29.070 114.969,31.977 115.007 C 33.606 115.028,34.642 115.156,35.333 115.420 C 38.506 116.632,47.312 117.966,48.276 117.380 C 51.212 115.594,51.849 109.826,49.593 105.455 C 44.576 95.733,45.549 90.946,54.043 83.567 C 57.000 80.999,57.812 80.342,58.781 79.733 C 59.272 79.424,59.820 78.994,60.000 78.778 C 60.180 78.561,60.728 78.131,61.219 77.822 C 63.416 76.438,67.467 72.798,74.151 66.202 C 76.617 63.769,78.733 61.778,78.852 61.778 C 78.971 61.778,79.480 61.434,79.982 61.015 C 80.498 60.584,81.450 60.093,82.170 59.887 C 82.871 59.686,83.946 59.242,84.558 58.900 C 85.170 58.558,86.251 58.096,86.959 57.873 C 87.666 57.650,88.630 57.138,89.100 56.736 C 89.655 56.261,90.369 55.918,91.143 55.755 C 92.607 55.448,93.047 55.079,93.345 53.909 C 93.799 52.125,93.998 51.854,95.494 50.980 C 97.153 50.009,97.564 49.339,98.001 46.889 C 98.346 44.958,99.401 43.490,101.932 41.419 C 103.134 40.435,105.481 39.433,108.556 38.590 C 109.460 38.342,112.161 38.626,113.027 39.061 M215.309 48.186 C 212.774 49.100,211.444 50.574,210.543 53.465 L 209.964 55.323 209.965 86.951 L 209.966 118.579 210.444 120.012 C 211.596 123.461,214.938 126.313,217.333 125.889 C 218.744 125.639,221.663 124.033,222.110 123.260 C 222.335 122.873,222.793 122.237,223.129 121.847 C 224.246 120.552,224.233 120.983,224.170 86.333 L 224.111 53.889 223.610 52.889 C 223.124 51.918,222.482 50.927,221.592 49.771 C 220.574 48.451,217.044 47.560,215.309 48.186 M266.448 48.061 C 263.879 48.695,262.324 50.217,260.834 53.556 C 260.220 54.932,260.076 63.211,260.135 93.667 C 260.185 119.153,260.194 119.358,261.364 121.212 C 261.753 121.829,262.213 122.610,262.387 122.947 C 262.560 123.285,262.919 123.715,263.184 123.902 C 266.499 126.241,267.196 126.332,270.207 124.826 L 272.525 123.667 273.763 121.269 L 275.000 118.872 275.000 86.936 L 275.000 55.000 273.824 52.620 C 272.015 48.957,269.391 47.335,266.448 48.061 M313.225 49.412 C 311.278 49.863,311.444 46.339,311.444 87.049 L 311.444 123.099 311.950 123.605 C 313.209 124.865,320.016 124.347,321.725 122.861 C 322.124 122.514,322.736 122.083,323.085 121.902 C 323.773 121.547,324.736 119.536,325.005 117.898 C 325.355 115.760,325.136 56.168,324.773 54.778 C 323.838 51.202,321.743 49.778,316.941 49.455 C 315.809 49.379,314.759 49.280,314.608 49.236 C 314.457 49.191,313.834 49.270,313.225 49.412 M302.482 157.650 C 303.955 158.002,304.002 158.027,305.411 159.206 C 306.948 160.491,307.180 161.021,306.685 162.124 C 305.891 163.895,305.552 163.819,302.430 161.167 C 300.415 159.454,298.427 159.814,297.121 162.128 C 296.453 163.312,296.437 163.391,296.820 163.675 C 297.492 164.175,302.088 166.447,302.444 166.456 C 304.079 166.495,306.337 168.359,307.480 170.611 L 308.301 172.229 307.650 173.614 C 306.105 176.907,304.404 177.988,300.758 177.995 C 297.856 178.001,296.564 177.676,295.338 176.631 C 294.860 176.223,294.177 175.668,293.821 175.398 C 292.834 174.649,292.614 172.554,293.447 171.833 C 294.258 171.132,294.650 171.201,295.667 172.226 C 298.850 175.434,300.321 175.933,302.510 174.548 C 305.455 172.685,304.051 169.910,299.606 168.811 C 294.527 167.554,291.680 163.766,293.456 160.629 C 293.836 159.958,296.232 158.006,296.845 157.867 C 297.175 157.793,297.744 157.651,298.111 157.553 C 299.144 157.275,301.094 157.319,302.482 157.650 M190.540 158.130 C 194.440 159.983,197.222 164.002,197.222 167.781 C 197.222 170.451,195.551 173.961,193.652 175.280 C 190.065 177.772,190.169 177.742,184.824 177.791 C 177.298 177.860,177.702 178.494,177.822 166.809 C 177.913 157.947,177.859 158.133,180.444 157.712 C 181.858 157.482,189.876 157.814,190.540 158.130 M266.313 158.096 C 266.965 158.285,267.623 158.591,267.777 158.776 C 267.930 158.961,268.645 159.471,269.365 159.908 C 270.146 160.382,270.819 160.988,271.033 161.407 C 271.230 161.794,271.714 162.561,272.110 163.111 C 273.637 165.234,273.976 169.769,272.737 171.479 C 272.515 171.785,271.933 172.669,271.444 173.443 C 269.355 176.753,266.823 177.775,260.713 177.777 C 253.584 177.778,253.948 178.281,253.833 168.259 C 253.730 159.133,253.849 158.582,256.083 157.856 C 257.139 157.513,264.937 157.695,266.313 158.096 M226.060 158.167 C 226.254 158.381,226.660 159.239,226.963 160.075 C 227.266 160.911,227.731 161.825,227.996 162.107 C 228.262 162.389,228.718 163.396,229.010 164.344 C 229.303 165.292,229.803 166.444,230.122 166.904 C 230.441 167.364,230.878 168.424,231.093 169.259 C 231.504 170.855,231.881 171.700,232.757 172.990 C 233.055 173.430,233.401 174.427,233.548 175.272 L 233.809 176.774 233.128 177.383 C 232.246 178.171,231.593 177.916,230.675 176.424 C 230.317 175.843,229.586 174.910,229.051 174.350 L 228.076 173.333 224.586 173.333 C 220.635 173.333,220.388 173.412,219.475 174.963 C 218.671 176.330,217.250 177.778,216.713 177.778 C 214.873 177.778,214.865 174.834,216.699 172.471 C 216.925 172.180,217.411 170.966,217.779 169.774 C 218.147 168.583,218.581 167.496,218.745 167.361 C 219.121 167.048,219.655 165.800,220.094 164.203 C 220.282 163.519,220.720 162.604,221.067 162.167 C 221.413 161.731,221.832 160.811,221.997 160.123 C 222.517 157.957,224.854 156.832,226.060 158.167 M182.330 161.844 L 181.556 162.994 181.556 167.728 C 181.556 172.744,181.678 173.403,182.853 174.739 C 183.854 175.876,189.045 174.587,191.450 172.604 C 194.871 169.784,193.952 163.742,189.833 161.976 C 189.289 161.743,188.603 161.363,188.310 161.132 C 187.867 160.784,187.384 160.712,185.441 160.704 L 183.105 160.694 182.330 161.844 M258.702 160.957 C 257.066 162.929,257.004 172.940,258.617 174.739 C 259.652 175.894,266.457 174.205,268.133 172.378 C 269.426 170.968,269.820 167.078,268.903 164.778 C 268.205 163.026,268.100 162.909,266.667 162.283 C 265.994 161.990,264.971 161.506,264.393 161.208 C 263.158 160.572,259.168 160.396,258.702 160.957 M224.390 164.441 C 223.074 164.609,222.943 164.744,222.523 166.350 C 221.754 169.295,222.351 170.444,224.647 170.444 C 226.676 170.444,227.246 169.167,226.468 166.361 C 225.940 164.458,225.736 164.270,224.390 164.441 " stroke="none" fill="#fbfbfb" fill-rule="evenodd"></path></g></svg>